# xmcd
#
# Track frame offsets:
#	150
#	18707
#	41715
#	55157
#	75404
#	101095
#	120763
#	138082
#	152759
#	175081
#	192230
#	209673
#	231519
#	246175
#	262934
#	279302
#
# Disc length: 4089 seconds
#
# Revision: 1
# Processed by: cddbd v1.5.2PL0 Copyright (c) Steve Scherf et al.
# Submitted via: EZCDAudioConverter 3.1.5.1
#
DISCID=d60ff710
DTITLE=Various Artist - 最靚聲之選 [LPCD]-2
DYEAR=2009
DGENRE=Pop
TTITLE0=鄧麗君 - 但願人長久 (國)
TTITLE1=蔡琴 - 癡癡的等 (國)
TTITLE2=費玉清 - 何日君再來 (國)
TTITLE3=王菲 - 執迷不悔 (國)
TTITLE4=蘇芮 - 牽手 (國)
TTITLE5=黃紅英 - 初次嘗到寂寞 (國)
TTITLE6=甄妮 - 海上花 (國)
TTITLE7=蔡琴 - 相思河畔 (國)
TTITLE8=林憶蓮 - 愛上一個不回家的人 (國)
TTITLE9=羅文 - 獅子山下
TTITLE10=杜麗莎 - 仍然記得 一次
TTITLE11=徐小鳳 - 婚紗背後
TTITLE12=葉麗儀 - 上海灘
TTITLE13=林子祥 - 追憶
TTITLE14=葉振棠 - 忘盡心中情
TTITLE15=夏韶聲 - 情人
EXTD=
EXTT0=
EXTT1=
EXTT2=
EXTT3=
EXTT4=
EXTT5=
EXTT6=
EXTT7=
EXTT8=
EXTT9=
EXTT10=
EXTT11=
EXTT12=
EXTT13=
EXTT14=
EXTT15=
PLAYORDER=
